<svg width="734" height="640" viewBox="0 0 734 640" fill="none" xmlns="http://www.w3.org/2000/svg" xmlns:xlink="http://www.w3.org/1999/xlink">
<rect width="734" height="640" fill="url(#pattern0)"/>
<defs>
<pattern id="pattern0" patternContentUnits="objectBoundingBox" width="1" height="1">
<use xlink:href="#image0" transform="translate(-0.00408719) scale(0.0013624 0.0015625)"/>
</pattern>
<image id="image0" width="740" height="640" xlink:href="images/home.png"/>
</defs>
<path d="M222 531L442.8 539L512 525.3V547L443.5 566.7L222 555.7V531Z" fill="#3595F6" fill-opacity="0.75"/>
<path d="M223 531V506L443.3 509.3L513 506V526L443.7 539L223 531Z" fill="#3595F6" fill-opacity="0.75"/>
<path d="M223 506V481H444H513V504L445 511L223 506Z" fill="#3595F6" fill-opacity="0.75"/>
<path d="M223 480V455L444.3 451.3L512 458V480H444" fill="#3595F6" fill-opacity="0.75"/>
<path d="M223 455V429L444.5 425.7L513 436.7V458L444 451.3L223 455Z" fill="#3595F6" fill-opacity="0.75"/>
<path d="M222 429V405.3L443 393L514 416V437.3L443 425L222 429Z" fill="#3595F6" fill-opacity="0.75"/>
<path d="M222 407V382L444.2 365.7L514 394.3V415L443.7 393.3L222 407Z" fill="#3595F6" fill-opacity="0.75"/>
<path d="M222 382V357L444.5 336.7L514 373.3V394L442 365.3L222 382Z" fill="#3595F6" fill-opacity="0.75"/>
<path d="M222 357V333L445 308.3L514 352.3V374L444.7 336L222 357Z" fill="#3595F6" fill-opacity="0.75"/>
<path d="M222 332V308L444.5 279.3L514 330.3V351L443.7 308.7L222 332Z" fill="#3595F6" fill-opacity="0.75"/>
<path d="M221 308V284L443.3 251L514 310.3V330L444 279.3L221 308Z" fill="#3595F6" fill-opacity="0.75"/>
<path d="M222 283V259L443.2 224L513 288V309L444.3 250.7L222 283Z" fill="#3595F6" fill-opacity="0.75"/>
<path d="M222 259V234L444.3 196L513 266.3V287L444 223L222 259Z" fill="#3595F6" fill-opacity="0.75"/>
<path d="M222 235V210L442.8 166.3L513 245.3V268L444 194.7L222 235Z" fill="#3595F6" fill-opacity="0.75"/>
<path d="M223 210V185L443 137L513 222V245L442.3 165.7L223 210Z" fill="#3595F6" fill-opacity="0.75"/>
<path d="M222 185V160L441.8 108L513 200.3V223L443.3 136.7L222 185Z" fill="#3595F6" fill-opacity="0.75"/>
<path d="M222 161V135L444 78.3L513 180V201L443.7 109.3L222 161Z" fill="#3595F6" fill-opacity="0.75"/>

</svg>
